G04 #@! TF.GenerationSoftware,KiCad,Pcbnew,5.1.4+dfsg1-1~bpo10+1*
G04 #@! TF.CreationDate,2020-08-02T09:01:36+02:00*
G04 #@! TF.ProjectId,stlink3-flash,73746c69-6e6b-4332-9d66-6c6173682e6b,rev?*
G04 #@! TF.SameCoordinates,Original*
G04 #@! TF.FileFunction,Legend,Top*
G04 #@! TF.FilePolarity,Positive*
%FSLAX46Y46*%
G04 Gerber Fmt 4.6, Leading zero omitted, Abs format (unit mm)*
G04 Created by KiCad (PCBNEW 5.1.4+dfsg1-1~bpo10+1) date 2020-08-02 09:01:36*
%MOMM*%
%LPD*%
G04 APERTURE LIST*
%ADD10C,0.120000*%
%ADD11C,0.300000*%
G04 APERTURE END LIST*
D10*
X98679000Y-45720000D02*
G75*
G03X98679000Y-45720000I-254000J0D01*
G01*
X98679000Y-46990000D02*
G75*
G03X98679000Y-46990000I-254000J0D01*
G01*
X98679000Y-49530000D02*
G75*
G03X98679000Y-49530000I-254000J0D01*
G01*
X98679000Y-53340000D02*
G75*
G03X98679000Y-53340000I-254000J0D01*
G01*
X98679000Y-55880000D02*
G75*
G03X98679000Y-55880000I-254000J0D01*
G01*
X98679000Y-57150000D02*
G75*
G03X98679000Y-57150000I-254000J0D01*
G01*
X83439000Y-45720000D02*
G75*
G03X83439000Y-45720000I-254000J0D01*
G01*
X83439000Y-46990000D02*
G75*
G03X83439000Y-46990000I-254000J0D01*
G01*
X83439000Y-48260000D02*
G75*
G03X83439000Y-48260000I-254000J0D01*
G01*
X83439000Y-49530000D02*
G75*
G03X83439000Y-49530000I-254000J0D01*
G01*
X83439000Y-50800000D02*
G75*
G03X83439000Y-50800000I-254000J0D01*
G01*
X83439000Y-52070000D02*
G75*
G03X83439000Y-52070000I-254000J0D01*
G01*
X83439000Y-54610000D02*
G75*
G03X83439000Y-54610000I-254000J0D01*
G01*
X83439000Y-55880000D02*
G75*
G03X83439000Y-55880000I-254000J0D01*
G01*
X83439000Y-57150000D02*
G75*
G03X83439000Y-57150000I-254000J0D01*
G01*
X83439000Y-58420000D02*
G75*
G03X83439000Y-58420000I-254000J0D01*
G01*
X83439000Y-59690000D02*
G75*
G03X83439000Y-59690000I-254000J0D01*
G01*
X83439000Y-60960000D02*
G75*
G03X83439000Y-60960000I-254000J0D01*
G01*
X83439000Y-62230000D02*
G75*
G03X83439000Y-62230000I-254000J0D01*
G01*
X98679000Y-44450000D02*
G75*
G03X98679000Y-44450000I-254000J0D01*
G01*
X83439000Y-44450000D02*
G75*
G03X83439000Y-44450000I-254000J0D01*
G01*
X83439000Y-63500000D02*
G75*
G03X83439000Y-63500000I-254000J0D01*
G01*
X98679000Y-63500000D02*
G75*
G03X98679000Y-63500000I-254000J0D01*
G01*
D11*
X87305000Y-46317142D02*
X87519285Y-46388571D01*
X87876428Y-46388571D01*
X88019285Y-46317142D01*
X88090714Y-46245714D01*
X88162142Y-46102857D01*
X88162142Y-45960000D01*
X88090714Y-45817142D01*
X88019285Y-45745714D01*
X87876428Y-45674285D01*
X87590714Y-45602857D01*
X87447857Y-45531428D01*
X87376428Y-45460000D01*
X87305000Y-45317142D01*
X87305000Y-45174285D01*
X87376428Y-45031428D01*
X87447857Y-44960000D01*
X87590714Y-44888571D01*
X87947857Y-44888571D01*
X88162142Y-44960000D01*
X88590714Y-44888571D02*
X89447857Y-44888571D01*
X89019285Y-46388571D02*
X89019285Y-44888571D01*
X90662142Y-46388571D02*
X89947857Y-46388571D01*
X89947857Y-44888571D01*
X91162142Y-46388571D02*
X91162142Y-44888571D01*
X91876428Y-46388571D02*
X91876428Y-44888571D01*
X92733571Y-46388571D01*
X92733571Y-44888571D01*
X93447857Y-46388571D02*
X93447857Y-44888571D01*
X94305000Y-46388571D02*
X93662142Y-45531428D01*
X94305000Y-44888571D02*
X93447857Y-45745714D01*
X87233571Y-47438571D02*
X87733571Y-48938571D01*
X88233571Y-47438571D01*
X88590714Y-47438571D02*
X89519285Y-47438571D01*
X89019285Y-48010000D01*
X89233571Y-48010000D01*
X89376428Y-48081428D01*
X89447857Y-48152857D01*
X89519285Y-48295714D01*
X89519285Y-48652857D01*
X89447857Y-48795714D01*
X89376428Y-48867142D01*
X89233571Y-48938571D01*
X88805000Y-48938571D01*
X88662142Y-48867142D01*
X88590714Y-48795714D01*
X90162142Y-48938571D02*
X90162142Y-47438571D01*
X90662142Y-48510000D01*
X91162142Y-47438571D01*
X91162142Y-48938571D01*
X91876428Y-48938571D02*
X91876428Y-47438571D01*
X92590714Y-48938571D02*
X92590714Y-47438571D01*
X93447857Y-48938571D01*
X93447857Y-47438571D01*
X94162142Y-48938571D02*
X94162142Y-47438571D01*
X88269285Y-50702857D02*
X87769285Y-50702857D01*
X87769285Y-51488571D02*
X87769285Y-49988571D01*
X88483571Y-49988571D01*
X89769285Y-51488571D02*
X89055000Y-51488571D01*
X89055000Y-49988571D01*
X90197857Y-51060000D02*
X90912142Y-51060000D01*
X90055000Y-51488571D02*
X90555000Y-49988571D01*
X91055000Y-51488571D01*
X91483571Y-51417142D02*
X91697857Y-51488571D01*
X92055000Y-51488571D01*
X92197857Y-51417142D01*
X92269285Y-51345714D01*
X92340714Y-51202857D01*
X92340714Y-51060000D01*
X92269285Y-50917142D01*
X92197857Y-50845714D01*
X92055000Y-50774285D01*
X91769285Y-50702857D01*
X91626428Y-50631428D01*
X91555000Y-50560000D01*
X91483571Y-50417142D01*
X91483571Y-50274285D01*
X91555000Y-50131428D01*
X91626428Y-50060000D01*
X91769285Y-49988571D01*
X92126428Y-49988571D01*
X92340714Y-50060000D01*
X92983571Y-51488571D02*
X92983571Y-49988571D01*
X92983571Y-50702857D02*
X93840714Y-50702857D01*
X93840714Y-51488571D02*
X93840714Y-49988571D01*
D10*
X97315000Y-50040000D02*
X98425000Y-50040000D01*
X97315000Y-50800000D02*
X97315000Y-50040000D01*
X98988471Y-51560000D02*
X99535000Y-51560000D01*
X97315000Y-51560000D02*
X97861529Y-51560000D01*
X99535000Y-51560000D02*
X99535000Y-52765000D01*
X97315000Y-51560000D02*
X97315000Y-52765000D01*
X98732530Y-52765000D02*
X99535000Y-52765000D01*
X97315000Y-52765000D02*
X98117470Y-52765000D01*
X84330000Y-66515000D02*
X84330000Y-65405000D01*
X85090000Y-66515000D02*
X84330000Y-66515000D01*
X85850000Y-64841529D02*
X85850000Y-64295000D01*
X85850000Y-66515000D02*
X85850000Y-65968471D01*
X85850000Y-64295000D02*
X85785000Y-64295000D01*
X85850000Y-66515000D02*
X85785000Y-66515000D01*
X85850000Y-66515000D02*
X85850000Y-64295000D01*
X82075000Y-52580000D02*
X83185000Y-52580000D01*
X82075000Y-53340000D02*
X82075000Y-52580000D01*
X83748471Y-54100000D02*
X84295000Y-54100000D01*
X82075000Y-54100000D02*
X82621529Y-54100000D01*
X84295000Y-54100000D02*
X84295000Y-54035000D01*
X82075000Y-54100000D02*
X82075000Y-54035000D01*
X82075000Y-54100000D02*
X84295000Y-54100000D01*
X97315000Y-53850000D02*
X98425000Y-53850000D01*
X97315000Y-54610000D02*
X97315000Y-53850000D01*
X98988471Y-55370000D02*
X99535000Y-55370000D01*
X97315000Y-55370000D02*
X97861529Y-55370000D01*
X99535000Y-55370000D02*
X99535000Y-55305000D01*
X97315000Y-55370000D02*
X97315000Y-55305000D01*
X97315000Y-55370000D02*
X99535000Y-55370000D01*
X97315000Y-47500000D02*
X98425000Y-47500000D01*
X97315000Y-48260000D02*
X97315000Y-47500000D01*
X98988471Y-49020000D02*
X99535000Y-49020000D01*
X97315000Y-49020000D02*
X97861529Y-49020000D01*
X99535000Y-49020000D02*
X99535000Y-48955000D01*
X97315000Y-49020000D02*
X97315000Y-48955000D01*
X97315000Y-49020000D02*
X99535000Y-49020000D01*
X97315000Y-57660000D02*
X98425000Y-57660000D01*
X97315000Y-58420000D02*
X97315000Y-57660000D01*
X98988471Y-59180000D02*
X99535000Y-59180000D01*
X97315000Y-59180000D02*
X97861529Y-59180000D01*
X99535000Y-59180000D02*
X99535000Y-62925000D01*
X97315000Y-59180000D02*
X97315000Y-62925000D01*
X98732530Y-62925000D02*
X99535000Y-62925000D01*
X97315000Y-62925000D02*
X98117470Y-62925000D01*
M02*
