G04 #@! TF.GenerationSoftware,KiCad,Pcbnew,5.1.4+dfsg1-1~bpo10+1*
G04 #@! TF.CreationDate,2020-08-02T09:01:36+02:00*
G04 #@! TF.ProjectId,stlink3-flash,73746c69-6e6b-4332-9d66-6c6173682e6b,rev?*
G04 #@! TF.SameCoordinates,Original*
G04 #@! TF.FileFunction,Legend,Bot*
G04 #@! TF.FilePolarity,Positive*
%FSLAX46Y46*%
G04 Gerber Fmt 4.6, Leading zero omitted, Abs format (unit mm)*
G04 Created by KiCad (PCBNEW 5.1.4+dfsg1-1~bpo10+1) date 2020-08-02 09:01:36*
%MOMM*%
%LPD*%
G04 APERTURE LIST*
%ADD10C,0.400000*%
%ADD11C,0.120000*%
%ADD12C,0.100000*%
%ADD13C,0.150000*%
G04 APERTURE END LIST*
D10*
X85544000Y-48895000D02*
G75*
G03X85544000Y-48895000I-200000J0D01*
G01*
D11*
X94142779Y-52580000D02*
X93817221Y-52580000D01*
X94142779Y-51560000D02*
X93817221Y-51560000D01*
X87371422Y-51360000D02*
X87888578Y-51360000D01*
X87371422Y-52780000D02*
X87888578Y-52780000D01*
D12*
X93530000Y-49715000D02*
X93530000Y-49315000D01*
X93530000Y-49715000D02*
X93105000Y-49715000D01*
X93555000Y-44240000D02*
X93555000Y-44665000D01*
X93555000Y-44240000D02*
X93080000Y-44240000D01*
X88080000Y-44240000D02*
X88480000Y-44240000D01*
X88080000Y-44240000D02*
X88080000Y-44640000D01*
X88055000Y-49290000D02*
X87005000Y-49290000D01*
X88055000Y-49740000D02*
X88055000Y-49290000D01*
X88555000Y-49740000D02*
X88055000Y-49740000D01*
D13*
X94908666Y-50903142D02*
X94956285Y-50950761D01*
X95099142Y-50998380D01*
X95194380Y-50998380D01*
X95337238Y-50950761D01*
X95432476Y-50855523D01*
X95480095Y-50760285D01*
X95527714Y-50569809D01*
X95527714Y-50426952D01*
X95480095Y-50236476D01*
X95432476Y-50141238D01*
X95337238Y-50046000D01*
X95194380Y-49998380D01*
X95099142Y-49998380D01*
X94956285Y-50046000D01*
X94908666Y-50093619D01*
X93956285Y-50998380D02*
X94527714Y-50998380D01*
X94242000Y-50998380D02*
X94242000Y-49998380D01*
X94337238Y-50141238D01*
X94432476Y-50236476D01*
X94527714Y-50284095D01*
X88812666Y-50998380D02*
X89146000Y-50522190D01*
X89384095Y-50998380D02*
X89384095Y-49998380D01*
X89003142Y-49998380D01*
X88907904Y-50046000D01*
X88860285Y-50093619D01*
X88812666Y-50188857D01*
X88812666Y-50331714D01*
X88860285Y-50426952D01*
X88907904Y-50474571D01*
X89003142Y-50522190D01*
X89384095Y-50522190D01*
X87860285Y-50998380D02*
X88431714Y-50998380D01*
X88146000Y-50998380D02*
X88146000Y-49998380D01*
X88241238Y-50141238D01*
X88336476Y-50236476D01*
X88431714Y-50284095D01*
X85851904Y-49998380D02*
X85851904Y-50807904D01*
X85804285Y-50903142D01*
X85756666Y-50950761D01*
X85661428Y-50998380D01*
X85470952Y-50998380D01*
X85375714Y-50950761D01*
X85328095Y-50903142D01*
X85280476Y-50807904D01*
X85280476Y-49998380D01*
X84280476Y-50998380D02*
X84851904Y-50998380D01*
X84566190Y-50998380D02*
X84566190Y-49998380D01*
X84661428Y-50141238D01*
X84756666Y-50236476D01*
X84851904Y-50284095D01*
M02*
