G04 #@! TF.GenerationSoftware,KiCad,Pcbnew,5.1.4+dfsg1-1~bpo10+1*
G04 #@! TF.CreationDate,2020-08-02T09:01:36+02:00*
G04 #@! TF.ProjectId,stlink3-flash,73746c69-6e6b-4332-9d66-6c6173682e6b,rev?*
G04 #@! TF.SameCoordinates,Original*
G04 #@! TF.FileFunction,Copper,L1,Top*
G04 #@! TF.FilePolarity,Positive*
%FSLAX46Y46*%
G04 Gerber Fmt 4.6, Leading zero omitted, Abs format (unit mm)*
G04 Created by KiCad (PCBNEW 5.1.4+dfsg1-1~bpo10+1) date 2020-08-02 09:01:36*
%MOMM*%
%LPD*%
G04 APERTURE LIST*
%ADD10R,1.905000X1.066800*%
%ADD11R,1.066800X1.905000*%
%ADD12C,0.800000*%
%ADD13C,0.203200*%
G04 APERTURE END LIST*
D10*
X98425000Y-52070000D03*
X98425000Y-50800000D03*
D11*
X85090000Y-65405000D03*
D10*
X83185000Y-53340000D03*
X98425000Y-54610000D03*
X98425000Y-48260000D03*
X98425000Y-62230000D03*
X98425000Y-60960000D03*
X98425000Y-59690000D03*
X98425000Y-58420000D03*
D12*
X88900000Y-45085000D03*
X85471000Y-45085000D03*
X92075000Y-52070000D03*
X85090000Y-65405000D03*
X98425000Y-62230000D03*
X98425000Y-60960000D03*
X98425000Y-59690000D03*
X98425000Y-57150000D03*
D13*
X98425000Y-58420000D02*
X98425000Y-57150000D01*
G36*
X99924401Y-66904400D02*
G01*
X81685600Y-66904400D01*
X81685600Y-53873400D01*
X81875179Y-53873400D01*
X81882045Y-53943110D01*
X81902378Y-54010141D01*
X81935398Y-54071917D01*
X81979836Y-54126064D01*
X82033983Y-54170502D01*
X82095759Y-54203522D01*
X82162790Y-54223855D01*
X82232500Y-54230721D01*
X83070700Y-54229000D01*
X83159600Y-54140100D01*
X83159600Y-53365400D01*
X83210400Y-53365400D01*
X83210400Y-54140100D01*
X83299300Y-54229000D01*
X84049401Y-54230540D01*
X84049400Y-64115079D01*
X84047438Y-64135000D01*
X84055269Y-64214511D01*
X84078462Y-64290967D01*
X84116125Y-64361429D01*
X84166810Y-64423190D01*
X84199523Y-64450036D01*
X84199280Y-64452500D01*
X84199280Y-66357500D01*
X84206146Y-66427210D01*
X84226479Y-66494240D01*
X84259499Y-66556016D01*
X84303937Y-66610163D01*
X84358084Y-66654601D01*
X84419860Y-66687621D01*
X84486890Y-66707954D01*
X84556600Y-66714820D01*
X85623400Y-66714820D01*
X85693110Y-66707954D01*
X85760140Y-66687621D01*
X85821916Y-66654601D01*
X85876063Y-66610163D01*
X85920501Y-66556016D01*
X85953521Y-66494240D01*
X85973854Y-66427210D01*
X85980720Y-66357500D01*
X85980720Y-64540600D01*
X95865079Y-64540600D01*
X95885000Y-64542562D01*
X95964511Y-64534731D01*
X96040967Y-64511538D01*
X96111429Y-64473875D01*
X96173190Y-64423190D01*
X96223875Y-64361429D01*
X96261538Y-64290967D01*
X96284731Y-64214511D01*
X96290600Y-64154921D01*
X96290600Y-64154920D01*
X96292562Y-64135000D01*
X96290600Y-64115079D01*
X96290600Y-57886600D01*
X97115180Y-57886600D01*
X97115180Y-58953400D01*
X97122046Y-59023110D01*
X97131720Y-59055000D01*
X97122046Y-59086890D01*
X97115180Y-59156600D01*
X97115180Y-60223400D01*
X97122046Y-60293110D01*
X97131720Y-60325000D01*
X97122046Y-60356890D01*
X97115180Y-60426600D01*
X97115180Y-61493400D01*
X97122046Y-61563110D01*
X97131720Y-61595000D01*
X97122046Y-61626890D01*
X97115180Y-61696600D01*
X97115180Y-62763400D01*
X97122046Y-62833110D01*
X97142379Y-62900140D01*
X97175399Y-62961916D01*
X97219837Y-63016063D01*
X97273984Y-63060501D01*
X97335760Y-63093521D01*
X97402790Y-63113854D01*
X97472500Y-63120720D01*
X99377500Y-63120720D01*
X99447210Y-63113854D01*
X99514240Y-63093521D01*
X99576016Y-63060501D01*
X99630163Y-63016063D01*
X99674601Y-62961916D01*
X99707621Y-62900140D01*
X99727954Y-62833110D01*
X99734820Y-62763400D01*
X99734820Y-61696600D01*
X99727954Y-61626890D01*
X99718280Y-61595000D01*
X99727954Y-61563110D01*
X99734820Y-61493400D01*
X99734820Y-60426600D01*
X99727954Y-60356890D01*
X99718280Y-60325000D01*
X99727954Y-60293110D01*
X99734820Y-60223400D01*
X99734820Y-59156600D01*
X99727954Y-59086890D01*
X99718280Y-59055000D01*
X99727954Y-59023110D01*
X99734820Y-58953400D01*
X99734820Y-57886600D01*
X99727954Y-57816890D01*
X99707621Y-57749860D01*
X99674601Y-57688084D01*
X99630163Y-57633937D01*
X99576016Y-57589499D01*
X99514240Y-57556479D01*
X99447210Y-57536146D01*
X99377500Y-57529280D01*
X99080326Y-57529280D01*
X99094604Y-57507911D01*
X99151563Y-57370400D01*
X99180600Y-57224420D01*
X99180600Y-57075580D01*
X99151563Y-56929600D01*
X99094604Y-56792089D01*
X99011913Y-56668333D01*
X98906667Y-56563087D01*
X98782911Y-56480396D01*
X98645400Y-56423437D01*
X98499420Y-56394400D01*
X98350580Y-56394400D01*
X98204600Y-56423437D01*
X98067089Y-56480396D01*
X97943333Y-56563087D01*
X97838087Y-56668333D01*
X97755396Y-56792089D01*
X97698437Y-56929600D01*
X97669400Y-57075580D01*
X97669400Y-57224420D01*
X97698437Y-57370400D01*
X97755396Y-57507911D01*
X97769674Y-57529280D01*
X97472500Y-57529280D01*
X97402790Y-57536146D01*
X97335760Y-57556479D01*
X97273984Y-57589499D01*
X97219837Y-57633937D01*
X97175399Y-57688084D01*
X97142379Y-57749860D01*
X97122046Y-57816890D01*
X97115180Y-57886600D01*
X96290600Y-57886600D01*
X96290600Y-55143400D01*
X97115179Y-55143400D01*
X97122045Y-55213110D01*
X97142378Y-55280141D01*
X97175398Y-55341917D01*
X97219836Y-55396064D01*
X97273983Y-55440502D01*
X97335759Y-55473522D01*
X97402790Y-55493855D01*
X97472500Y-55500721D01*
X98310700Y-55499000D01*
X98399600Y-55410100D01*
X98399600Y-54635400D01*
X98450400Y-54635400D01*
X98450400Y-55410100D01*
X98539300Y-55499000D01*
X99377500Y-55500721D01*
X99447210Y-55493855D01*
X99514241Y-55473522D01*
X99576017Y-55440502D01*
X99630164Y-55396064D01*
X99674602Y-55341917D01*
X99707622Y-55280141D01*
X99727955Y-55213110D01*
X99734821Y-55143400D01*
X99733100Y-54724300D01*
X99644200Y-54635400D01*
X98450400Y-54635400D01*
X98399600Y-54635400D01*
X97205800Y-54635400D01*
X97116900Y-54724300D01*
X97115179Y-55143400D01*
X96290600Y-55143400D01*
X96290600Y-54076600D01*
X97115179Y-54076600D01*
X97116900Y-54495700D01*
X97205800Y-54584600D01*
X98399600Y-54584600D01*
X98399600Y-53809900D01*
X98450400Y-53809900D01*
X98450400Y-54584600D01*
X99644200Y-54584600D01*
X99733100Y-54495700D01*
X99734821Y-54076600D01*
X99727955Y-54006890D01*
X99707622Y-53939859D01*
X99674602Y-53878083D01*
X99630164Y-53823936D01*
X99576017Y-53779498D01*
X99514241Y-53746478D01*
X99447210Y-53726145D01*
X99377500Y-53719279D01*
X98539300Y-53721000D01*
X98450400Y-53809900D01*
X98399600Y-53809900D01*
X98310700Y-53721000D01*
X97472500Y-53719279D01*
X97402790Y-53726145D01*
X97335759Y-53746478D01*
X97273983Y-53779498D01*
X97219836Y-53823936D01*
X97175398Y-53878083D01*
X97142378Y-53939859D01*
X97122045Y-54006890D01*
X97115179Y-54076600D01*
X96290600Y-54076600D01*
X96290600Y-53994921D01*
X96292562Y-53975000D01*
X96284731Y-53895489D01*
X96261538Y-53819033D01*
X96223875Y-53748571D01*
X96173190Y-53686810D01*
X96111429Y-53636125D01*
X96040967Y-53598462D01*
X95964511Y-53575269D01*
X95904921Y-53569400D01*
X95885000Y-53567438D01*
X95865079Y-53569400D01*
X84493573Y-53569400D01*
X84493100Y-53454300D01*
X84404200Y-53365400D01*
X83210400Y-53365400D01*
X83159600Y-53365400D01*
X81965800Y-53365400D01*
X81876900Y-53454300D01*
X81875179Y-53873400D01*
X81685600Y-53873400D01*
X81685600Y-52806600D01*
X81875179Y-52806600D01*
X81876900Y-53225700D01*
X81965800Y-53314600D01*
X83159600Y-53314600D01*
X83159600Y-52539900D01*
X83210400Y-52539900D01*
X83210400Y-53314600D01*
X84404200Y-53314600D01*
X84493100Y-53225700D01*
X84494821Y-52806600D01*
X84487955Y-52736890D01*
X84467622Y-52669859D01*
X84434602Y-52608083D01*
X84430759Y-52603400D01*
X97115179Y-52603400D01*
X97122045Y-52673110D01*
X97142378Y-52740141D01*
X97175398Y-52801917D01*
X97219836Y-52856064D01*
X97273983Y-52900502D01*
X97335759Y-52933522D01*
X97402790Y-52953855D01*
X97472500Y-52960721D01*
X98310700Y-52959000D01*
X98399600Y-52870100D01*
X98399600Y-52095400D01*
X98450400Y-52095400D01*
X98450400Y-52870100D01*
X98539300Y-52959000D01*
X99377500Y-52960721D01*
X99447210Y-52953855D01*
X99514241Y-52933522D01*
X99576017Y-52900502D01*
X99630164Y-52856064D01*
X99674602Y-52801917D01*
X99707622Y-52740141D01*
X99727955Y-52673110D01*
X99734821Y-52603400D01*
X99733100Y-52184300D01*
X99644200Y-52095400D01*
X98450400Y-52095400D01*
X98399600Y-52095400D01*
X97205800Y-52095400D01*
X97116900Y-52184300D01*
X97115179Y-52603400D01*
X84430759Y-52603400D01*
X84390164Y-52553936D01*
X84336017Y-52509498D01*
X84274241Y-52476478D01*
X84207210Y-52456145D01*
X84137500Y-52449279D01*
X83299300Y-52451000D01*
X83210400Y-52539900D01*
X83159600Y-52539900D01*
X83070700Y-52451000D01*
X82232500Y-52449279D01*
X82162790Y-52456145D01*
X82095759Y-52476478D01*
X82033983Y-52509498D01*
X81979836Y-52553936D01*
X81935398Y-52608083D01*
X81902378Y-52669859D01*
X81882045Y-52736890D01*
X81875179Y-52806600D01*
X81685600Y-52806600D01*
X81685600Y-51333400D01*
X97115179Y-51333400D01*
X97122045Y-51403110D01*
X97131718Y-51435000D01*
X97122045Y-51466890D01*
X97115179Y-51536600D01*
X97116900Y-51955700D01*
X97205800Y-52044600D01*
X98399600Y-52044600D01*
X98399600Y-50825400D01*
X98450400Y-50825400D01*
X98450400Y-52044600D01*
X99644200Y-52044600D01*
X99733100Y-51955700D01*
X99734821Y-51536600D01*
X99727955Y-51466890D01*
X99718282Y-51435000D01*
X99727955Y-51403110D01*
X99734821Y-51333400D01*
X99733100Y-50914300D01*
X99644200Y-50825400D01*
X98450400Y-50825400D01*
X98399600Y-50825400D01*
X97205800Y-50825400D01*
X97116900Y-50914300D01*
X97115179Y-51333400D01*
X81685600Y-51333400D01*
X81685600Y-50266600D01*
X97115179Y-50266600D01*
X97116900Y-50685700D01*
X97205800Y-50774600D01*
X98399600Y-50774600D01*
X98399600Y-49999900D01*
X98450400Y-49999900D01*
X98450400Y-50774600D01*
X99644200Y-50774600D01*
X99733100Y-50685700D01*
X99734821Y-50266600D01*
X99727955Y-50196890D01*
X99707622Y-50129859D01*
X99674602Y-50068083D01*
X99630164Y-50013936D01*
X99576017Y-49969498D01*
X99514241Y-49936478D01*
X99447210Y-49916145D01*
X99377500Y-49909279D01*
X98539300Y-49911000D01*
X98450400Y-49999900D01*
X98399600Y-49999900D01*
X98310700Y-49911000D01*
X97472500Y-49909279D01*
X97402790Y-49916145D01*
X97335759Y-49936478D01*
X97273983Y-49969498D01*
X97219836Y-50013936D01*
X97175398Y-50068083D01*
X97142378Y-50129859D01*
X97122045Y-50196890D01*
X97115179Y-50266600D01*
X81685600Y-50266600D01*
X81685600Y-48793400D01*
X97115179Y-48793400D01*
X97122045Y-48863110D01*
X97142378Y-48930141D01*
X97175398Y-48991917D01*
X97219836Y-49046064D01*
X97273983Y-49090502D01*
X97335759Y-49123522D01*
X97402790Y-49143855D01*
X97472500Y-49150721D01*
X98310700Y-49149000D01*
X98399600Y-49060100D01*
X98399600Y-48285400D01*
X98450400Y-48285400D01*
X98450400Y-49060100D01*
X98539300Y-49149000D01*
X99377500Y-49150721D01*
X99447210Y-49143855D01*
X99514241Y-49123522D01*
X99576017Y-49090502D01*
X99630164Y-49046064D01*
X99674602Y-48991917D01*
X99707622Y-48930141D01*
X99727955Y-48863110D01*
X99734821Y-48793400D01*
X99733100Y-48374300D01*
X99644200Y-48285400D01*
X98450400Y-48285400D01*
X98399600Y-48285400D01*
X97205800Y-48285400D01*
X97116900Y-48374300D01*
X97115179Y-48793400D01*
X81685600Y-48793400D01*
X81685600Y-47726600D01*
X97115179Y-47726600D01*
X97116900Y-48145700D01*
X97205800Y-48234600D01*
X98399600Y-48234600D01*
X98399600Y-47459900D01*
X98450400Y-47459900D01*
X98450400Y-48234600D01*
X99644200Y-48234600D01*
X99733100Y-48145700D01*
X99734821Y-47726600D01*
X99727955Y-47656890D01*
X99707622Y-47589859D01*
X99674602Y-47528083D01*
X99630164Y-47473936D01*
X99576017Y-47429498D01*
X99514241Y-47396478D01*
X99447210Y-47376145D01*
X99377500Y-47369279D01*
X98539300Y-47371000D01*
X98450400Y-47459900D01*
X98399600Y-47459900D01*
X98310700Y-47371000D01*
X97472500Y-47369279D01*
X97402790Y-47376145D01*
X97335759Y-47396478D01*
X97273983Y-47429498D01*
X97219836Y-47473936D01*
X97175398Y-47528083D01*
X97142378Y-47589859D01*
X97122045Y-47656890D01*
X97115179Y-47726600D01*
X81685600Y-47726600D01*
X81685600Y-42950600D01*
X99924400Y-42950600D01*
X99924401Y-66904400D01*
X99924401Y-66904400D01*
G37*
X99924401Y-66904400D02*
X81685600Y-66904400D01*
X81685600Y-53873400D01*
X81875179Y-53873400D01*
X81882045Y-53943110D01*
X81902378Y-54010141D01*
X81935398Y-54071917D01*
X81979836Y-54126064D01*
X82033983Y-54170502D01*
X82095759Y-54203522D01*
X82162790Y-54223855D01*
X82232500Y-54230721D01*
X83070700Y-54229000D01*
X83159600Y-54140100D01*
X83159600Y-53365400D01*
X83210400Y-53365400D01*
X83210400Y-54140100D01*
X83299300Y-54229000D01*
X84049401Y-54230540D01*
X84049400Y-64115079D01*
X84047438Y-64135000D01*
X84055269Y-64214511D01*
X84078462Y-64290967D01*
X84116125Y-64361429D01*
X84166810Y-64423190D01*
X84199523Y-64450036D01*
X84199280Y-64452500D01*
X84199280Y-66357500D01*
X84206146Y-66427210D01*
X84226479Y-66494240D01*
X84259499Y-66556016D01*
X84303937Y-66610163D01*
X84358084Y-66654601D01*
X84419860Y-66687621D01*
X84486890Y-66707954D01*
X84556600Y-66714820D01*
X85623400Y-66714820D01*
X85693110Y-66707954D01*
X85760140Y-66687621D01*
X85821916Y-66654601D01*
X85876063Y-66610163D01*
X85920501Y-66556016D01*
X85953521Y-66494240D01*
X85973854Y-66427210D01*
X85980720Y-66357500D01*
X85980720Y-64540600D01*
X95865079Y-64540600D01*
X95885000Y-64542562D01*
X95964511Y-64534731D01*
X96040967Y-64511538D01*
X96111429Y-64473875D01*
X96173190Y-64423190D01*
X96223875Y-64361429D01*
X96261538Y-64290967D01*
X96284731Y-64214511D01*
X96290600Y-64154921D01*
X96290600Y-64154920D01*
X96292562Y-64135000D01*
X96290600Y-64115079D01*
X96290600Y-57886600D01*
X97115180Y-57886600D01*
X97115180Y-58953400D01*
X97122046Y-59023110D01*
X97131720Y-59055000D01*
X97122046Y-59086890D01*
X97115180Y-59156600D01*
X97115180Y-60223400D01*
X97122046Y-60293110D01*
X97131720Y-60325000D01*
X97122046Y-60356890D01*
X97115180Y-60426600D01*
X97115180Y-61493400D01*
X97122046Y-61563110D01*
X97131720Y-61595000D01*
X97122046Y-61626890D01*
X97115180Y-61696600D01*
X97115180Y-62763400D01*
X97122046Y-62833110D01*
X97142379Y-62900140D01*
X97175399Y-62961916D01*
X97219837Y-63016063D01*
X97273984Y-63060501D01*
X97335760Y-63093521D01*
X97402790Y-63113854D01*
X97472500Y-63120720D01*
X99377500Y-63120720D01*
X99447210Y-63113854D01*
X99514240Y-63093521D01*
X99576016Y-63060501D01*
X99630163Y-63016063D01*
X99674601Y-62961916D01*
X99707621Y-62900140D01*
X99727954Y-62833110D01*
X99734820Y-62763400D01*
X99734820Y-61696600D01*
X99727954Y-61626890D01*
X99718280Y-61595000D01*
X99727954Y-61563110D01*
X99734820Y-61493400D01*
X99734820Y-60426600D01*
X99727954Y-60356890D01*
X99718280Y-60325000D01*
X99727954Y-60293110D01*
X99734820Y-60223400D01*
X99734820Y-59156600D01*
X99727954Y-59086890D01*
X99718280Y-59055000D01*
X99727954Y-59023110D01*
X99734820Y-58953400D01*
X99734820Y-57886600D01*
X99727954Y-57816890D01*
X99707621Y-57749860D01*
X99674601Y-57688084D01*
X99630163Y-57633937D01*
X99576016Y-57589499D01*
X99514240Y-57556479D01*
X99447210Y-57536146D01*
X99377500Y-57529280D01*
X99080326Y-57529280D01*
X99094604Y-57507911D01*
X99151563Y-57370400D01*
X99180600Y-57224420D01*
X99180600Y-57075580D01*
X99151563Y-56929600D01*
X99094604Y-56792089D01*
X99011913Y-56668333D01*
X98906667Y-56563087D01*
X98782911Y-56480396D01*
X98645400Y-56423437D01*
X98499420Y-56394400D01*
X98350580Y-56394400D01*
X98204600Y-56423437D01*
X98067089Y-56480396D01*
X97943333Y-56563087D01*
X97838087Y-56668333D01*
X97755396Y-56792089D01*
X97698437Y-56929600D01*
X97669400Y-57075580D01*
X97669400Y-57224420D01*
X97698437Y-57370400D01*
X97755396Y-57507911D01*
X97769674Y-57529280D01*
X97472500Y-57529280D01*
X97402790Y-57536146D01*
X97335760Y-57556479D01*
X97273984Y-57589499D01*
X97219837Y-57633937D01*
X97175399Y-57688084D01*
X97142379Y-57749860D01*
X97122046Y-57816890D01*
X97115180Y-57886600D01*
X96290600Y-57886600D01*
X96290600Y-55143400D01*
X97115179Y-55143400D01*
X97122045Y-55213110D01*
X97142378Y-55280141D01*
X97175398Y-55341917D01*
X97219836Y-55396064D01*
X97273983Y-55440502D01*
X97335759Y-55473522D01*
X97402790Y-55493855D01*
X97472500Y-55500721D01*
X98310700Y-55499000D01*
X98399600Y-55410100D01*
X98399600Y-54635400D01*
X98450400Y-54635400D01*
X98450400Y-55410100D01*
X98539300Y-55499000D01*
X99377500Y-55500721D01*
X99447210Y-55493855D01*
X99514241Y-55473522D01*
X99576017Y-55440502D01*
X99630164Y-55396064D01*
X99674602Y-55341917D01*
X99707622Y-55280141D01*
X99727955Y-55213110D01*
X99734821Y-55143400D01*
X99733100Y-54724300D01*
X99644200Y-54635400D01*
X98450400Y-54635400D01*
X98399600Y-54635400D01*
X97205800Y-54635400D01*
X97116900Y-54724300D01*
X97115179Y-55143400D01*
X96290600Y-55143400D01*
X96290600Y-54076600D01*
X97115179Y-54076600D01*
X97116900Y-54495700D01*
X97205800Y-54584600D01*
X98399600Y-54584600D01*
X98399600Y-53809900D01*
X98450400Y-53809900D01*
X98450400Y-54584600D01*
X99644200Y-54584600D01*
X99733100Y-54495700D01*
X99734821Y-54076600D01*
X99727955Y-54006890D01*
X99707622Y-53939859D01*
X99674602Y-53878083D01*
X99630164Y-53823936D01*
X99576017Y-53779498D01*
X99514241Y-53746478D01*
X99447210Y-53726145D01*
X99377500Y-53719279D01*
X98539300Y-53721000D01*
X98450400Y-53809900D01*
X98399600Y-53809900D01*
X98310700Y-53721000D01*
X97472500Y-53719279D01*
X97402790Y-53726145D01*
X97335759Y-53746478D01*
X97273983Y-53779498D01*
X97219836Y-53823936D01*
X97175398Y-53878083D01*
X97142378Y-53939859D01*
X97122045Y-54006890D01*
X97115179Y-54076600D01*
X96290600Y-54076600D01*
X96290600Y-53994921D01*
X96292562Y-53975000D01*
X96284731Y-53895489D01*
X96261538Y-53819033D01*
X96223875Y-53748571D01*
X96173190Y-53686810D01*
X96111429Y-53636125D01*
X96040967Y-53598462D01*
X95964511Y-53575269D01*
X95904921Y-53569400D01*
X95885000Y-53567438D01*
X95865079Y-53569400D01*
X84493573Y-53569400D01*
X84493100Y-53454300D01*
X84404200Y-53365400D01*
X83210400Y-53365400D01*
X83159600Y-53365400D01*
X81965800Y-53365400D01*
X81876900Y-53454300D01*
X81875179Y-53873400D01*
X81685600Y-53873400D01*
X81685600Y-52806600D01*
X81875179Y-52806600D01*
X81876900Y-53225700D01*
X81965800Y-53314600D01*
X83159600Y-53314600D01*
X83159600Y-52539900D01*
X83210400Y-52539900D01*
X83210400Y-53314600D01*
X84404200Y-53314600D01*
X84493100Y-53225700D01*
X84494821Y-52806600D01*
X84487955Y-52736890D01*
X84467622Y-52669859D01*
X84434602Y-52608083D01*
X84430759Y-52603400D01*
X97115179Y-52603400D01*
X97122045Y-52673110D01*
X97142378Y-52740141D01*
X97175398Y-52801917D01*
X97219836Y-52856064D01*
X97273983Y-52900502D01*
X97335759Y-52933522D01*
X97402790Y-52953855D01*
X97472500Y-52960721D01*
X98310700Y-52959000D01*
X98399600Y-52870100D01*
X98399600Y-52095400D01*
X98450400Y-52095400D01*
X98450400Y-52870100D01*
X98539300Y-52959000D01*
X99377500Y-52960721D01*
X99447210Y-52953855D01*
X99514241Y-52933522D01*
X99576017Y-52900502D01*
X99630164Y-52856064D01*
X99674602Y-52801917D01*
X99707622Y-52740141D01*
X99727955Y-52673110D01*
X99734821Y-52603400D01*
X99733100Y-52184300D01*
X99644200Y-52095400D01*
X98450400Y-52095400D01*
X98399600Y-52095400D01*
X97205800Y-52095400D01*
X97116900Y-52184300D01*
X97115179Y-52603400D01*
X84430759Y-52603400D01*
X84390164Y-52553936D01*
X84336017Y-52509498D01*
X84274241Y-52476478D01*
X84207210Y-52456145D01*
X84137500Y-52449279D01*
X83299300Y-52451000D01*
X83210400Y-52539900D01*
X83159600Y-52539900D01*
X83070700Y-52451000D01*
X82232500Y-52449279D01*
X82162790Y-52456145D01*
X82095759Y-52476478D01*
X82033983Y-52509498D01*
X81979836Y-52553936D01*
X81935398Y-52608083D01*
X81902378Y-52669859D01*
X81882045Y-52736890D01*
X81875179Y-52806600D01*
X81685600Y-52806600D01*
X81685600Y-51333400D01*
X97115179Y-51333400D01*
X97122045Y-51403110D01*
X97131718Y-51435000D01*
X97122045Y-51466890D01*
X97115179Y-51536600D01*
X97116900Y-51955700D01*
X97205800Y-52044600D01*
X98399600Y-52044600D01*
X98399600Y-50825400D01*
X98450400Y-50825400D01*
X98450400Y-52044600D01*
X99644200Y-52044600D01*
X99733100Y-51955700D01*
X99734821Y-51536600D01*
X99727955Y-51466890D01*
X99718282Y-51435000D01*
X99727955Y-51403110D01*
X99734821Y-51333400D01*
X99733100Y-50914300D01*
X99644200Y-50825400D01*
X98450400Y-50825400D01*
X98399600Y-50825400D01*
X97205800Y-50825400D01*
X97116900Y-50914300D01*
X97115179Y-51333400D01*
X81685600Y-51333400D01*
X81685600Y-50266600D01*
X97115179Y-50266600D01*
X97116900Y-50685700D01*
X97205800Y-50774600D01*
X98399600Y-50774600D01*
X98399600Y-49999900D01*
X98450400Y-49999900D01*
X98450400Y-50774600D01*
X99644200Y-50774600D01*
X99733100Y-50685700D01*
X99734821Y-50266600D01*
X99727955Y-50196890D01*
X99707622Y-50129859D01*
X99674602Y-50068083D01*
X99630164Y-50013936D01*
X99576017Y-49969498D01*
X99514241Y-49936478D01*
X99447210Y-49916145D01*
X99377500Y-49909279D01*
X98539300Y-49911000D01*
X98450400Y-49999900D01*
X98399600Y-49999900D01*
X98310700Y-49911000D01*
X97472500Y-49909279D01*
X97402790Y-49916145D01*
X97335759Y-49936478D01*
X97273983Y-49969498D01*
X97219836Y-50013936D01*
X97175398Y-50068083D01*
X97142378Y-50129859D01*
X97122045Y-50196890D01*
X97115179Y-50266600D01*
X81685600Y-50266600D01*
X81685600Y-48793400D01*
X97115179Y-48793400D01*
X97122045Y-48863110D01*
X97142378Y-48930141D01*
X97175398Y-48991917D01*
X97219836Y-49046064D01*
X97273983Y-49090502D01*
X97335759Y-49123522D01*
X97402790Y-49143855D01*
X97472500Y-49150721D01*
X98310700Y-49149000D01*
X98399600Y-49060100D01*
X98399600Y-48285400D01*
X98450400Y-48285400D01*
X98450400Y-49060100D01*
X98539300Y-49149000D01*
X99377500Y-49150721D01*
X99447210Y-49143855D01*
X99514241Y-49123522D01*
X99576017Y-49090502D01*
X99630164Y-49046064D01*
X99674602Y-48991917D01*
X99707622Y-48930141D01*
X99727955Y-48863110D01*
X99734821Y-48793400D01*
X99733100Y-48374300D01*
X99644200Y-48285400D01*
X98450400Y-48285400D01*
X98399600Y-48285400D01*
X97205800Y-48285400D01*
X97116900Y-48374300D01*
X97115179Y-48793400D01*
X81685600Y-48793400D01*
X81685600Y-47726600D01*
X97115179Y-47726600D01*
X97116900Y-48145700D01*
X97205800Y-48234600D01*
X98399600Y-48234600D01*
X98399600Y-47459900D01*
X98450400Y-47459900D01*
X98450400Y-48234600D01*
X99644200Y-48234600D01*
X99733100Y-48145700D01*
X99734821Y-47726600D01*
X99727955Y-47656890D01*
X99707622Y-47589859D01*
X99674602Y-47528083D01*
X99630164Y-47473936D01*
X99576017Y-47429498D01*
X99514241Y-47396478D01*
X99447210Y-47376145D01*
X99377500Y-47369279D01*
X98539300Y-47371000D01*
X98450400Y-47459900D01*
X98399600Y-47459900D01*
X98310700Y-47371000D01*
X97472500Y-47369279D01*
X97402790Y-47376145D01*
X97335759Y-47396478D01*
X97273983Y-47429498D01*
X97219836Y-47473936D01*
X97175398Y-47528083D01*
X97142378Y-47589859D01*
X97122045Y-47656890D01*
X97115179Y-47726600D01*
X81685600Y-47726600D01*
X81685600Y-42950600D01*
X99924400Y-42950600D01*
X99924401Y-66904400D01*
M02*
